<?xml version="1.0" standalone="no"?>
<!DOCTYPE svg PUBLIC "-//W3C//DTD SVG 20010904//EN"
 "http://www.w3.org/TR/2001/REC-SVG-20010904/DTD/svg10.dtd">
<svg version="1.0" xmlns="http://www.w3.org/2000/svg"
 width="500.000000pt" height="500.000000pt" viewBox="0 0 500.000000 500.000000"
 preserveAspectRatio="xMidYMid meet">
<metadata>
Created by potrace 1.11, written by Peter Selinger 2001-2013
</metadata>
<g transform="translate(0.000000,500.000000) scale(0.100000,-0.100000)"
fill="#000000" stroke="none">
<path d="M2880 4249 c-270 -31 -545 -131 -774 -283 l-100 -66 -203 0 c-222 0
-252 -6 -291 -55 -32 -41 -38 -89 -16 -137 26 -58 64 -78 148 -78 79 0 79 1
13 -86 -24 -33 -65 -94 -91 -136 l-48 -77 -436 -3 c-410 -3 -439 -4 -465 -22
-38 -26 -57 -66 -57 -122 0 -41 5 -51 39 -85 l39 -39 375 0 c207 0 378 -4 381
-8 3 -5 -2 -32 -11 -61 -8 -29 -23 -91 -32 -139 l-17 -87 -165 -5 c-136 -4
-170 -8 -192 -23 -64 -41 -84 -123 -47 -184 33 -55 61 -63 230 -63 122 0 150
-3 150 -14 0 -23 20 -219 25 -253 l6 -33 -288 0 c-254 0 -292 -2 -322 -18 -69
-35 -97 -110 -66 -176 34 -71 30 -70 408 -76 l340 -5 37 -90 c20 -49 49 -113
63 -142 15 -29 27 -55 27 -58 0 -3 -106 -5 -235 -5 -256 0 -284 -5 -323 -55
-48 -61 -32 -155 33 -195 31 -19 51 -20 378 -20 l346 0 58 -61 c247 -262 587
-447 953 -521 162 -32 472 -33 635 -1 403 79 742 270 1003 565 215 244 351
525 418 863 25 126 25 483 1 605 -80 395 -241 696 -513 961 -289 281 -643 447
-1044 489 -111 11 -264 11 -370 -1z m470 -548 c243 -61 422 -162 596 -336 153
-154 264 -348 321 -563 35 -131 44 -381 18 -517 -47 -255 -163 -475 -344 -656
-159 -158 -347 -266 -566 -324 -137 -37 -369 -46 -512 -20 -503 90 -884 459
-1000 967 -21 92 -24 384 -5 473 110 513 477 880 987 986 125 26 381 21 505
-10z"/>
<path d="M2445 3191 c-97 -44 -111 -159 -29 -231 32 -28 40 -30 112 -30 61 0
87 -5 122 -22 100 -52 106 -182 11 -245 -32 -22 -44 -23 -193 -23 -178 0 -211
-8 -248 -59 -45 -65 -31 -148 33 -195 23 -17 48 -22 125 -26 l96 -5 11 -46
c41 -160 168 -326 318 -417 127 -77 304 -114 447 -94 172 24 291 84 416 207
66 66 89 97 128 175 61 125 79 213 73 355 -16 345 -265 616 -611 664 -43 6
-229 11 -424 11 -315 0 -351 -2 -387 -19z"/>
<path d="M891 3883 c-46 -23 -71 -67 -71 -127 0 -43 4 -53 39 -87 l39 -39 187
0 187 0 39 39 c35 34 39 44 39 87 0 61 -25 105 -73 127 -51 25 -336 24 -386 0z"/>
<path d="M251 2172 c-51 -26 -75 -63 -75 -120 0 -53 17 -84 61 -113 37 -25
170 -26 214 -4 66 35 88 123 46 186 -31 47 -79 69 -152 69 -37 0 -73 -7 -94
-18z"/>
</g>
</svg>
